HIERARCHY
ROOT Hips
{
	OFFSET 54.705898 -6.009216 95.984100
	CHANNELS 6 Xposition Yposition Zposition Xrotation Yrotation Zrotation
	JOINT spine
	{
		OFFSET 0.000000 -0.467660 8.132492
		CHANNELS 3 Xrotation Yrotation Zrotation
		JOINT spine1
		{
			OFFSET 0.000000 -0.000001 10.349800
			CHANNELS 3 Xrotation Yrotation Zrotation
			JOINT spine2
			{
				OFFSET 0.000000 -0.000001 9.916992
				CHANNELS 3 Xrotation Yrotation Zrotation
				JOINT Neck
				{
					OFFSET 0.000000 -1.213904 25.461006
					CHANNELS 3 Xrotation Yrotation Zrotation
					JOINT Head
					{
						OFFSET 0.000000 -0.000001 7.692444
						CHANNELS 3 Xrotation Yrotation Zrotation
						End Site
						{
							OFFSET 0.000000 6.140627 18.619995
						}
					}
				}
				JOINT RightShoulder
				{
					OFFSET -4.175751 0.581443 10.709602
					CHANNELS 3 Xrotation Yrotation Zrotation
					JOINT RightArm
					{
						OFFSET 0.000000 -0.000002 14.046600
						CHANNELS 3 Xrotation Yrotation Zrotation
						JOINT RightArmRoll
						{
							OFFSET 0.000000 -0.000001 7.090973
							CHANNELS 3 Xrotation Yrotation Zrotation
							JOINT RightForeArm
							{
								OFFSET 0.000000 -0.000003 20.653503
								CHANNELS 3 Xrotation Yrotation Zrotation
								JOINT RightForeArmRoll
								{
									OFFSET 0.000000 -0.000001 7.957184
									CHANNELS 3 Xrotation Yrotation Zrotation
									JOINT RightHand
									{
										OFFSET 0.000000 -0.000003 15.968292
										CHANNELS 3 Xrotation Yrotation Zrotation
										End Site
										{
											OFFSET 0.000000 0.000000 0.100006
										}
									}
								}
							}
						}
					}
				}
				JOINT LeftShoulder
				{
					OFFSET 4.175751 0.581443 10.709602
					CHANNELS 3 Xrotation Yrotation Zrotation
					JOINT LeftArm
					{
						OFFSET 0.000000 -0.000002 14.046600
						CHANNELS 3 Xrotation Yrotation Zrotation
						JOINT LeftArmRoll
						{
							OFFSET 0.000000 -0.000001 7.090973
							CHANNELS 3 Xrotation Yrotation Zrotation
							JOINT LeftForeArm
							{
								OFFSET 0.000000 -0.000003 20.653503
								CHANNELS 3 Xrotation Yrotation Zrotation
								JOINT LeftForeArmRoll
								{
									OFFSET 0.000000 -0.000001 7.957184
									CHANNELS 3 Xrotation Yrotation Zrotation
									JOINT LeftHand
									{
										OFFSET 0.000000 -0.000003 15.968292
										CHANNELS 3 Xrotation Yrotation Zrotation
										End Site
										{
											OFFSET 0.000000 0.000000 0.100006
										}
									}
								}
							}
						}
					}
				}
			}
		}
	}
	JOINT RightUpLeg
	{
		OFFSET -7.208340 1.108840 -1.321823
		CHANNELS 3 Xrotation Yrotation Zrotation
		JOINT RightUpLegRoll
		{
			OFFSET 0.000000 -0.000003 18.723801
			CHANNELS 3 Xrotation Yrotation Zrotation
			JOINT RightLeg
			{
				OFFSET 0.000000 0.000004 -23.186600
				CHANNELS 3 Xrotation Yrotation Zrotation
				JOINT RightLegRoll
				{
					OFFSET 0.000000 -0.000004 23.262398
					CHANNELS 3 Xrotation Yrotation Zrotation
					JOINT RightFoot
					{
						OFFSET 0.000000 -0.000003 19.362099
						CHANNELS 3 Xrotation Yrotation Zrotation
						JOINT RightToeBase
						{
							OFFSET 0.000000 -0.000003 16.185699
							CHANNELS 3 Xrotation Yrotation Zrotation
							End Site
							{
								OFFSET 0.006859 0.903521 7.838623
							}
						}
					}
				}
			}
		}
	}
	JOINT LeftUpLeg
	{
		OFFSET 7.208340 1.108840 -1.321823
		CHANNELS 3 Xrotation Yrotation Zrotation
		JOINT LeftUpLegRoll
		{
			OFFSET 0.000000 -0.000003 18.723900
			CHANNELS 3 Xrotation Yrotation Zrotation
			JOINT LeftLeg
			{
				OFFSET 0.000000 -0.000004 23.186501
				CHANNELS 3 Xrotation Yrotation Zrotation
				JOINT LeftLegRoll
				{
					OFFSET 0.000000 -0.000004 23.477493
					CHANNELS 3 Xrotation Yrotation Zrotation
					JOINT LeftFoot
					{
						OFFSET 0.000000 -0.000003 19.147003
						CHANNELS 3 Xrotation Yrotation Zrotation
						JOINT LeftToeBase
						{
							OFFSET 0.000000 -0.000003 16.185699
							CHANNELS 3 Xrotation Yrotation Zrotation
							End Site
							{
								OFFSET -0.030746 0.903521 7.838623
							}
						}
					}
				}
			}
		}
	}
}
MOTION
Frames: 8
Frame Time: 0.041667
54.986099 -4.735106 96.055801 -3.658899 1.029038 0.261047 -2.582390 -0.207028 -0.021000 -1.148857 -0.397465 -0.040562 0.496237 -0.397996 -0.035628 27.253162 1.954189 -5.392579 4.782373 2.456350 -5.628898 -18.728068 -20.540541 -22.127518 -123.153952 -184.941688 -72.725231 -0.000000 0.000001 -0.000007 69.659262 0.481647 4.890143 0.000003 -0.000013 -3.003871 -5.000168 -7.999582 0.000067 -15.882802 36.369494 18.256320 -134.038515 188.894223 88.387067 0.000001 -0.000000 0.000011 65.506616 1.658146 -1.855268 0.000001 0.000000 3.000001 -5.000214 7.999132 -0.000108 -0.957697 -172.901977 3.846179 -179.999991 0.000005 -1.022993 169.980787 -1.749922 -0.598108 -0.000005 0.000001 -0.000777 69.012894 6.222290 3.890004 25.456955 -7.355613 -0.000000 -1.135156 171.677611 -2.396283 -0.000020 -0.000003 -0.909101 -13.786883 0.937170 0.733136 0.000000 -0.000005 -0.207507 72.850251 -6.128669 -4.027789 25.460898 7.355619 -0.005869 
54.989101 -4.723277 96.056000 -3.658219 1.038380 0.253474 -2.582176 -0.207245 -0.022514 -1.149318 -0.398556 -0.043827 0.495774 -0.399123 -0.038892 27.270054 1.935656 -5.389994 4.787336 2.464573 -5.628860 -18.737470 -20.538343 -22.141959 -123.141399 -184.922509 -72.790993 -0.000002 0.000003 -0.000008 69.627823 0.484591 4.874094 0.000001 -0.000014 -3.003880 -5.000167 -7.999582 0.000066 -15.873599 36.407343 18.244765 -134.065699 188.899810 88.481139 0.000000 -0.000000 0.000009 65.501145 1.655640 -1.844398 -0.000000 0.000002 2.999999 -5.000215 7.999130 -0.000110 -0.956462 -172.913971 3.839538 -179.999991 0.000005 -1.022994 169.992084 -1.749983 -0.597762 -0.000005 0.000001 -0.000875 69.005107 6.223936 3.885850 25.456955 -7.355615 0.000001 -1.136707 171.664606 -2.402833 -0.000020 -0.000004 -0.908475 -13.789080 0.936868 0.733822 0.000000 -0.000006 -0.207411 72.850046 -6.126826 -4.033224 25.460898 7.355621 -0.005869 
54.978298 -4.723006 96.055298 -3.657711 1.047931 0.245315 -2.581806 -0.207459 -0.024117 -1.149618 -0.399792 -0.047308 0.495473 -0.400398 -0.042371 27.284272 1.918943 -5.387620 4.795403 2.471799 -5.628866 -18.745111 -20.537585 -22.153671 -123.133803 -184.896445 -72.857034 0.000001 -0.000001 -0.000004 69.587620 0.489488 4.856489 0.000004 -0.000011 -3.003880 -5.000168 -7.999581 0.000068 -15.865604 36.446716 18.235055 -134.094891 188.899919 88.580156 -0.000000 0.000001 0.000009 65.477929 1.650074 -1.829737 0.000001 0.000002 3.000000 -5.000212 7.999132 -0.000110 -0.954946 -172.926989 3.832892 -179.999991 0.000006 -1.024004 170.003736 -1.749050 -0.596234 -0.000005 0.000001 -0.000974 68.996993 6.225555 3.881606 25.456957 -7.355613 0.000000 -1.137815 171.651629 -2.409657 -0.000020 -0.000005 -0.907876 -13.791177 0.936626 0.734533 0.000001 -0.000006 -0.207384 72.850040 -6.124980 -4.038642 25.460893 7.355619 -0.005869 
54.974201 -4.722587 96.055298 -3.657310 1.057632 0.236639 -2.581297 -0.207672 -0.025791 -1.149789 -0.401148 -0.050963 0.495302 -0.401794 -0.046026 27.296120 1.903965 -5.385459 4.806172 2.477996 -5.628914 -18.751207 -20.538152 -22.163102 -123.130265 -184.863878 -72.922132 0.000005 0.000000 -0.000006 69.539563 0.496117 4.837458 -0.000002 -0.000011 -3.003892 -5.000167 -7.999581 0.000068 -15.859011 36.487383 18.227198 -134.126146 188.894933 88.683463 0.000002 -0.000000 0.000008 65.438820 1.641747 -1.811700 0.000000 0.000000 3.000002 -5.000208 7.999133 -0.000109 -0.953211 -172.939966 3.826260 -179.999991 0.000006 -1.024004 170.015826 -1.749115 -0.595864 -0.000005 -0.000000 -0.001073 68.988490 6.227246 3.877100 25.456957 -7.355614 0.000001 -1.138581 171.638624 -2.416700 -0.000020 -0.000003 -0.907303 -13.793279 0.936442 0.735262 0.000000 -0.000005 -0.207412 72.850149 -6.123159 -4.044161 25.460894 7.355621 -0.005869 
54.975899 -4.717709 96.056290 -3.656986 1.067432 0.227512 -2.580696 -0.207882 -0.027517 -1.149859 -0.402597 -0.054752 0.495237 -0.403282 -0.049814 27.305701 1.890664 -5.383531 4.819255 2.483162 -5.629000 -18.756304 -20.540175 -22.170803 -123.129828 -184.825165 -72.988132 0.000000 0.000000 -0.000003 69.484034 0.504278 4.817061 0.000000 -0.000012 -3.003887 -5.000166 -7.999581 0.000065 -15.853561 36.529289 18.220945 -134.159204 188.884988 88.791325 0.000002 0.000003 0.000009 65.385428 1.630994 -1.790717 0.000000 0.000002 3.000001 -5.000209 7.999127 -0.000110 -0.951328 -172.952971 3.819656 -179.999991 0.000006 -1.024004 170.028270 -1.748199 -0.594315 -0.000005 0.000001 -0.001177 68.979849 6.228858 3.872586 25.456955 -7.355615 -0.000000 -1.139074 171.625619 -2.423892 -0.000019 -0.000004 -0.906753 -13.795275 0.936320 0.736004 -0.000001 -0.000005 -0.207487 72.850374 -6.121366 -4.049577 25.460898 7.355619 -0.005869 
54.968399 -4.699118 96.050293 -3.656659 1.077263 0.218003 -2.580036 -0.208093 -0.029279 -1.149838 -0.404111 -0.058633 0.495251 -0.404836 -0.053695 27.313406 1.878944 -5.381845 4.834248 2.487252 -5.629129 -18.760426 -20.543848 -22.177242 -123.131713 -184.780687 -73.053811 0.000000 0.000001 -0.000004 69.421933 0.513748 4.795404 -0.000000 -0.000011 -3.003898 -5.000173 -7.999580 0.000068 -15.849237 36.572320 18.216263 -134.194065 188.870235 88.900888 0.000001 0.000003 0.000011 65.319578 1.618115 -1.767241 -0.000002 0.000002 3.000001 -5.000213 7.999128 -0.000112 -0.949367 -172.965962 3.813109 -179.999991 0.000005 -1.024004 170.041015 -1.748268 -0.593927 -0.000005 0.000001 -0.001285 68.970902 6.230478 3.868092 25.456957 -7.355613 -0.000000 -1.139405 171.612642 -2.431168 -0.000019 -0.000004 -0.906222 -13.797178 0.936254 0.736750 0.000001 -0.000005 -0.207597 72.850627 -6.119628 -4.054902 25.460894 7.355619 -0.005870 
54.966702 -4.698373 96.051498 -3.656290 1.087063 0.208178 -2.579349 -0.208304 -0.031057 -1.149778 -0.405662 -0.062565 0.495309 -0.406428 -0.057626 27.319539 1.868735 -5.380400 4.850740 2.490260 -5.629285 -18.764000 -20.549112 -22.182774 -123.134937 -184.730813 -73.120986 0.000000 0.000001 -0.000006 69.353673 0.524325 4.772579 -0.000000 -0.000011 -3.003901 -5.000168 -7.999578 0.000068 -15.845860 36.616221 18.212875 -134.230470 188.850906 89.012391 -0.000001 0.000001 0.000009 65.242903 1.603432 -1.741689 0.000002 -0.000001 3.000001 -5.000212 7.999133 -0.000109 -0.947396 -172.978953 3.806634 -179.999991 0.000005 -1.025002 170.054075 -1.748338 -0.592530 -0.000005 0.000000 -0.001401 68.961640 6.232071 3.863610 25.456959 -7.355613 0.000001 -1.139659 171.599637 -2.438466 -0.000020 -0.000004 -0.905708 -13.799078 0.936249 0.737496 0.000001 -0.000005 -0.207731 72.850989 -6.117918 -4.060023 25.460898 7.355619 -0.005869 
54.967701 -4.702122 96.058891 -3.655810 1.096784 0.198106 -2.578658 -0.208517 -0.032834 -1.149709 -0.407226 -0.066507 0.495386 -0.408031 -0.061567 27.324295 1.859964 -5.379208 4.868344 2.492149 -5.629476 -18.767476 -20.556120 -22.188011 -123.138721 -184.675912 -73.188448 -0.000001 -0.000001 -0.000006 69.280023 0.535787 4.748669 0.000000 -0.000011 -3.003908 -5.000170 -7.999576 0.000068 -15.843305 36.661003 18.210700 -134.268269 188.827123 89.125110 0.000001 0.000002 0.000009 65.157252 1.587250 -1.714487 0.000003 0.000000 3.000001 -5.000214 7.999134 -0.000112 -0.945480 -172.991958 3.800262 -179.999991 0.000006 -1.025001 170.067339 -1.748408 -0.592126 -0.000005 0.000001 -0.001524 68.952228 6.233549 3.859313 25.456955 -7.355613 -0.000000 -1.139908 171.586633 -2.445723 -0.000020 -0.000004 -0.905208 -13.800880 0.936303 0.738238 -0.000001 -0.000006 -0.207877 72.851378 -6.116269 -4.065052 25.460901 7.355619 -0.005869 
